<svg width="600" height="256" viewBox="0 0 600 256" fill="none" xmlns="http://www.w3.org/2000/svg">
    <path fill-rule="evenodd" clip-rule="evenodd"
          d="M270.195 69.8438H189.805C187.539 69.8438 185.742 70.5664 184.414 72.0117C183.086 73.457 182.422 75.1953 182.422 77.2266V157.617C182.422 159.805 183.086 161.582 184.414 162.949C185.742 164.316 187.539 165 189.805 165H270.195C272.383 165 274.16 164.277 275.527 162.832C276.895 161.387 277.578 159.648 277.578 157.617V153.516C277.578 151.25 276.914 149.434 275.586 148.066C274.258 146.699 272.461 146.016 270.195 146.016H208.789C206.445 145.938 204.688 145.234 203.516 143.906C202.109 142.656 201.406 140.898 201.406 138.633V134.414C201.406 132.383 202.07 130.625 203.398 129.141C204.727 127.656 206.523 126.914 208.789 126.914H270.195C272.383 126.914 274.16 126.191 275.527 124.746C276.895 123.301 277.578 121.562 277.578 119.531V115.43C277.578 113.164 276.914 111.367 275.586 110.039C274.258 108.711 272.461 108.047 270.195 108.047H208.789C206.523 107.969 204.727 107.266 203.398 105.938C202.07 104.609 201.406 102.812 201.406 100.547V96.2109C201.406 94.2578 202.07 92.5391 203.398 91.0547C204.727 89.5703 206.523 88.8281 208.789 88.8281H270.195C272.383 88.8281 274.16 88.1445 275.527 86.7773C276.895 85.4102 277.578 83.5938 277.578 81.3281V77.2266C277.578 75.0391 276.914 73.2617 275.586 71.8945C274.258 70.5273 272.461 69.8438 270.195 69.8438ZM304.473 162.949C305.84 161.582 306.523 159.805 306.523 157.617V102.305L367.109 163.008C368.359 164.336 370.117 165 372.383 165H375.312C377.5 165 379.277 164.336 380.645 163.008C382.012 161.68 382.695 159.883 382.695 157.617V77.2266C382.695 75.0391 382.031 73.2617 380.703 71.8945C379.375 70.5273 377.578 69.8438 375.312 69.8438H371.211C368.945 69.8438 367.129 70.5078 365.762 71.8359C364.395 73.1641 363.711 74.9609 363.711 77.2266V132.422L303.125 71.8359C301.797 70.5078 300 69.8438 297.734 69.8438H294.922C292.734 69.8438 290.957 70.5078 289.59 71.8359C288.223 73.1641 287.539 74.9609 287.539 77.2266V157.617C287.539 159.805 288.203 161.582 289.531 162.949C290.859 164.316 292.656 165 294.922 165H299.023C301.289 165 303.105 164.316 304.473 162.949Z"
          fill="white"/>
    <path fill-rule="evenodd" clip-rule="evenodd"
          d="M152.687 103.041L170 85.6641C171.562 84.1797 172.344 82.4414 172.344 80.4492C172.344 78.457 171.562 76.6797 170 75.1172L167.188 72.3047C165.547 70.6641 163.75 69.8438 161.797 69.8438H161.68C159.648 69.9219 157.969 70.7422 156.641 72.3047L139.403 89.5421C145.115 92.5442 149.775 97.276 152.687 103.041ZM152.417 131.48C149.388 137.205 144.617 141.867 138.811 144.761L156.641 162.656C158.125 164.219 159.863 165 161.855 165C163.848 165 165.625 164.219 167.188 162.656L170 159.844C171.641 158.125 172.461 156.289 172.461 154.336C172.461 152.383 171.641 150.625 170 149.062L152.417 131.48ZM111.033 144.683C105.231 141.75 100.476 137.046 97.4792 131.283L79.6484 149.18C78.0859 150.664 77.3047 152.422 77.3047 154.453C77.3047 156.484 78.0859 158.281 79.6484 159.844L82.4609 162.656C84.2578 164.219 86.1523 165 88.1445 165C90.1367 165 91.7969 164.219 93.125 162.656L111.033 144.683ZM97.1956 103.276L79.6484 85.6641C78.0859 84.3359 77.3047 82.6758 77.3047 80.6836C77.3047 78.6914 78.0859 76.8359 79.6484 75.1172L82.4609 72.3047C84.0234 70.7422 85.8203 69.9219 87.8516 69.8438H87.9688C89.9219 69.8438 91.6406 70.6641 93.125 72.3047L110.444 89.6232C104.725 92.6702 100.074 97.4565 97.1956 103.276Z"
          fill="white"/>
    <circle cx="125" cy="117" r="18" fill="#FF3366"/>
    <path d="M424.669 138.736C424.669 146.865 426.857 152.717 431.235 156.29C435.612 159.863 442.044 161.65 450.531 161.65C459.107 161.65 465.628 159.908 470.095 156.424C474.651 152.851 476.929 146.955 476.929 138.736V71.2H481.753V138.736C481.753 148.473 479.073 155.486 473.713 159.774C468.442 164.062 460.715 166.206 450.531 166.206C440.436 166.206 432.798 164.062 427.617 159.774C422.435 155.486 419.845 148.473 419.845 138.736V71.2H424.669V138.736ZM505.832 165V71.2H510.656V165H505.832Z"
          fill="#FF3366"/>
    <path d="M110.9 197.736C109.252 198.072 107.772 198.24 106.46 198.24C105.148 198.24 104.084 198.064 103.268 197.712C102.468 197.344 101.844 196.784 101.396 196.032C100.964 195.264 100.66 194.392 100.484 193.416C100.324 192.424 100.244 191.192 100.244 189.72C100.244 188.248 100.324 187.016 100.484 186.024C100.66 185.016 100.964 184.128 101.396 183.36C101.844 182.592 102.468 182.032 103.268 181.68C104.068 181.328 105.108 181.152 106.388 181.152C107.668 181.152 109.172 181.328 110.9 181.68L110.828 183.24C109.212 182.952 107.772 182.808 106.508 182.808C104.748 182.808 103.58 183.336 103.004 184.392C102.444 185.432 102.164 187.216 102.164 189.744C102.164 191.008 102.212 192.024 102.308 192.792C102.42 193.56 102.628 194.256 102.932 194.88C103.236 195.488 103.676 195.928 104.252 196.2C104.844 196.456 105.7 196.584 106.82 196.584C107.956 196.584 109.292 196.44 110.828 196.152L110.9 197.736ZM125.203 192.792V191.16H129.739V186.48H131.419V191.16H136.003V192.792H131.419V197.52H129.739V192.792H125.203ZM150.633 192.792V191.16H155.169V186.48H156.849V191.16H161.432V192.792H156.849V197.52H155.169V192.792H150.633ZM195.784 193.008C195.784 195.408 197.08 196.608 199.672 196.608C201.016 196.608 202.024 196.328 202.696 195.768C203.384 195.192 203.728 194.272 203.728 193.008V181.392H205.552V192.96C205.552 194.816 205.056 196.16 204.064 196.992C203.088 197.824 201.64 198.24 199.72 198.24C197.8 198.24 196.352 197.824 195.376 196.992C194.416 196.16 193.936 194.816 193.936 192.96V181.392H195.784V193.008ZM221.501 198V181.392H223.349V198H221.501ZM256.681 198V181.392H266.617V183.024H258.529V189.504H265.369V191.136H258.529V198H256.681ZM283.161 191.64V198H281.313V181.392H287.457C289.217 181.392 290.537 181.8 291.417 182.616C292.313 183.432 292.761 184.704 292.761 186.432C292.761 188.992 291.745 190.6 289.713 191.256L292.905 198H290.865L287.865 191.64H283.161ZM287.481 190.008C289.737 190.008 290.865 188.848 290.865 186.528C290.865 184.192 289.729 183.024 287.457 183.024H283.161V190.008H287.481ZM306.474 198L311.034 181.392H315.066L319.626 198H317.802L316.602 193.728H309.498L308.298 198H306.474ZM312.426 182.976L309.906 192.072H316.194L313.674 182.976H312.426ZM334.235 198V181.392H337.571L342.275 195.432L346.979 181.392H350.315V198H348.467V183.36H348.131L343.307 197.4H341.243L336.419 183.36H336.083V198H334.235ZM366.392 198V181.392H376.496V183.024H368.24V188.76H375.056V190.368H368.24V196.368H376.496V198H366.392ZM390.337 181.392H392.257L395.089 196.368H395.785L399.169 181.536H401.329L404.713 196.368H405.409L408.241 181.392H410.137L406.777 198H403.393L400.249 183.816L397.105 198H393.721L390.337 181.392ZM426.139 189.768C426.139 192.2 426.459 193.952 427.099 195.024C427.739 196.08 428.971 196.608 430.795 196.608C432.635 196.608 433.867 196.088 434.491 195.048C435.131 194.008 435.451 192.264 435.451 189.816C435.451 187.368 435.123 185.584 434.467 184.464C433.811 183.344 432.579 182.784 430.771 182.784C428.979 182.784 427.755 183.344 427.099 184.464C426.459 185.568 426.139 187.336 426.139 189.768ZM437.371 189.816C437.371 192.776 436.899 194.92 435.955 196.248C435.011 197.576 433.291 198.24 430.795 198.24C428.315 198.24 426.603 197.56 425.659 196.2C424.715 194.84 424.243 192.704 424.243 189.792C424.243 186.864 424.723 184.696 425.683 183.288C426.643 181.864 428.347 181.152 430.795 181.152C433.243 181.152 434.947 181.856 435.907 183.264C436.883 184.672 437.371 186.856 437.371 189.816ZM454.607 191.64V198H452.759V181.392H458.903C460.663 181.392 461.983 181.8 462.863 182.616C463.759 183.432 464.207 184.704 464.207 186.432C464.207 188.992 463.191 190.6 461.159 191.256L464.351 198H462.311L459.311 191.64H454.607ZM458.927 190.008C461.183 190.008 462.311 188.848 462.311 186.528C462.311 184.192 461.175 183.024 458.903 183.024H454.607V190.008H458.927ZM481.396 198H479.548V181.392H481.396V189.12L484.132 189.024L488.38 181.392H490.492L485.74 189.744L490.756 198H488.572L484.156 190.656L481.396 190.752V198Z"
          fill="white" fill-opacity="0.75"/>
</svg>
